<?xml version="1.0" encoding="iso-8859-1"?>
<!-- Uploaded to: SVG Repo, www.svgrepo.com, Generator: SVG Repo Mixer Tools -->
<svg height="800px" width="800px" version="1.1" id="Layer_1" xmlns="http://www.w3.org/2000/svg" xmlns:xlink="http://www.w3.org/1999/xlink" 
	 viewBox="0 0 512 512" xml:space="preserve">
<g>
	<path style="fill:#DBB780;" d="M185.379,88.276H26.483V8.828C26.483,3.946,30.438,0,35.31,0h141.241
		c4.873,0,8.828,3.946,8.828,8.828V88.276z"/>
	<path style="fill:#38454F;" d="M185.379,335.448H26.483c-4.873,0-8.828-3.946-8.828-8.828v-26.483L0,273.664V97.103
		c0-4.882,3.955-8.828,8.828-8.828h194.207c4.873,0,8.828,3.946,8.828,8.828v176.561l-17.655,26.474v26.483
		C194.207,331.502,190.252,335.448,185.379,335.448"/>
	<path style="fill:#546A79;" d="M132.414,406.069H79.448c-4.873,0-8.828-3.946-8.828-8.828v-61.793h70.621v61.793
		C141.241,402.123,137.287,406.069,132.414,406.069"/>
	<g>
		<polygon style="fill:#F4E197;" points="79.448,61.797 97.103,61.797 97.103,44.141 79.448,44.141 		"/>
		<polygon style="fill:#F4E197;" points="52.966,88.279 70.621,88.279 70.621,0.004 52.966,0.004 		"/>
		<polygon style="fill:#F4E197;" points="114.759,61.797 132.414,61.797 132.414,44.141 114.759,44.141 		"/>
		<polygon style="fill:#F4E197;" points="141.241,88.279 158.897,88.279 158.897,0.004 141.241,0.004 		"/>
	</g>
	<g>
		<polygon style="fill:#546A79;" points="44.138,229.521 167.724,229.521 167.724,194.21 44.138,194.21 		"/>
		<polygon style="fill:#546A79;" points="61.793,300.141 150.069,300.141 150.069,264.831 61.793,264.831 		"/>
		<polygon style="fill:#546A79;" points="44.138,158.9 167.724,158.9 167.724,123.59 44.138,123.59 		"/>
	</g>
	<path style="fill:#38454F;" d="M150.069,379.586H61.793c-4.873,0-8.828-3.946-8.828-8.828c0-4.882,3.955-8.828,8.828-8.828h88.276
		c4.873,0,8.828,3.946,8.828,8.828C158.897,375.64,154.942,379.586,150.069,379.586"/>
	<path style="fill:#546A79;" d="M432.552,406.069h-52.966c-4.873,0-8.828-3.946-8.828-8.828v-61.793h70.621v61.793
		C441.379,402.123,437.425,406.069,432.552,406.069"/>
	<path style="fill:#38454F;" d="M450.207,379.586h-88.276c-4.873,0-8.828-3.946-8.828-8.828c0-4.882,3.955-8.828,8.828-8.828h88.276
		c4.873,0,8.828,3.946,8.828,8.828C459.034,375.64,455.08,379.586,450.207,379.586"/>
	<polygon style="fill:#DBB780;" points="317.793,141.245 494.345,141.245 494.345,0.004 317.793,0.004 	"/>
	<path style="fill:#38454F;" d="M503.172,335.448H308.966c-4.873,0-8.828-3.946-8.828-8.828V150.069
		c0-4.882,3.955-8.828,8.828-8.828h194.207c4.873,0,8.828,3.946,8.828,8.828v176.552C512,331.502,508.045,335.448,503.172,335.448"
		/>
	<g>
		<polygon style="fill:#F4E197;" points="353.103,88.279 388.414,88.279 388.414,52.969 353.103,52.969 		"/>
		<polygon style="fill:#F4E197;" points="423.724,88.279 459.034,88.279 459.034,52.969 423.724,52.969 		"/>
	</g>
	<path style="fill:#D4DBDF;" d="M388.414,406.069v8.828c0,34.066-27.719,61.793-61.793,61.793H185.379
		c-34.074,0-61.793-27.727-61.793-61.793v-8.828h-35.31v8.828c0,53.539,43.564,97.103,97.103,97.103h141.241
		c53.539,0,97.103-43.564,97.103-97.103v-8.828H388.414z"/>
</g>
</svg>