<?xml version="1.0" standalone="no"?>
<!DOCTYPE svg PUBLIC "-//W3C//DTD SVG 20010904//EN"
 "http://www.w3.org/TR/2001/REC-SVG-20010904/DTD/svg10.dtd">
<svg version="1.0" xmlns="http://www.w3.org/2000/svg"
 width="651.000000pt" height="801.000000pt" viewBox="0 0 651.000000 801.000000"
 preserveAspectRatio="xMidYMid meet">
<metadata>
Created by potrace 1.16, written by Peter Selinger 2001-2019
</metadata>
<g transform="translate(0.000000,801.000000) scale(0.100000,-0.100000)"
fill="#000000" stroke="none">
<path d="M0 7995 c0 -13 138 -15 1148 -17 631 -2 2095 -2 3254 0 1862 2 2108
4 2108 17 0 13 -375 15 -3255 15 -2879 0 -3255 -2 -3255 -15z"/>
<path d="M3285 7170 c-91 -13 -222 -31 -300 -40 -83 -9 -162 -25 -196 -38 -13
-6 -50 -16 -81 -23 -32 -7 -58 -15 -58 -18 0 -4 -20 -13 -44 -20 -25 -7 -47
-19 -50 -27 -3 -8 -12 -14 -20 -14 -8 0 -47 -31 -86 -70 -40 -38 -76 -67 -81
-65 -4 3 -18 -12 -30 -33 -13 -21 -36 -46 -51 -55 -16 -9 -27 -21 -24 -26 3
-5 -26 -35 -64 -67 -94 -78 -141 -145 -109 -156 15 -5 -6 -48 -24 -48 -7 0
-21 -13 -32 -29 -27 -38 -109 -148 -167 -223 -27 -34 -48 -66 -48 -73 0 -16
-47 -112 -59 -119 -14 -9 -49 -80 -54 -112 -3 -16 -10 -50 -17 -76 -13 -49
-10 -84 10 -153 6 -22 12 -82 12 -132 1 -51 5 -93 10 -93 5 0 7 -12 4 -27 -4
-18 1 -41 13 -65 17 -30 19 -45 12 -90 -6 -32 -5 -58 1 -65 7 -8 -2 -13 -34
-17 -68 -8 -427 -16 -858 -18 -217 0 -500 -3 -628 -6 -215 -4 -232 -5 -232
-22 0 -17 20 -17 398 -11 218 3 605 6 858 6 435 0 463 -1 482 -18 13 -12 20
-29 19 -45 l-2 -27 -170 -5 c-94 -3 -233 -3 -310 0 -77 3 -150 2 -163 -2 -13
-5 -150 -9 -305 -9 -155 -1 -401 -5 -547 -9 -146 -4 127 -5 607 -2 653 4 876
2 886 -7 8 -6 14 -28 14 -49 0 -20 10 -54 22 -76 12 -21 21 -39 19 -41 -3 -2
-1615 -26 -1740 -25 l-68 0 0 -105 0 -105 88 0 c48 0 263 5 477 10 649 16
1285 21 1285 10 0 -6 10 -10 23 -10 39 0 98 -80 102 -140 2 -14 13 -48 25 -75
13 -28 23 -61 24 -75 1 -22 -4 -25 -36 -28 -21 -2 -38 -5 -38 -7 0 -2 14 -19
30 -37 22 -24 30 -42 30 -70 0 -21 -4 -38 -8 -38 -5 0 -23 16 -41 35 -47 52
-115 44 -95 -10 6 -14 -7 -20 -30 -16 -14 3 -525 0 -646 -4 -58 -2 -341 -6
-630 -10 -289 -3 -533 -9 -542 -11 -17 -5 -18 -29 -18 -324 0 -246 3 -319 13
-323 6 -2 56 -5 110 -6 54 -1 104 -4 112 -7 9 -4 15 -19 15 -40 0 -30 -3 -34
-25 -34 -17 0 -25 -6 -26 -17 0 -14 -2 -14 -6 -4 -7 19 -60 64 -86 74 -31 12
-54 -1 -61 -34 -5 -25 -9 -29 -26 -24 -20 6 -20 4 -20 -1234 l0 -1241 43 0
c40 0 210 13 349 26 41 4 74 13 85 23 52 48 205 171 213 171 5 0 15 6 22 13 7
7 29 24 49 38 19 13 73 66 118 116 46 51 86 93 89 93 4 0 35 27 69 58 37 35
106 82 170 117 59 32 126 69 148 81 28 15 72 26 140 33 55 7 141 18 190 26
149 24 340 44 525 55 234 13 255 19 334 88 92 82 107 92 136 92 22 0 29 -7 40
-40 7 -22 23 -46 34 -55 59 -41 59 -41 41 -69 -10 -14 -25 -26 -35 -26 -9 0
-26 -8 -37 -18 l-21 -17 22 -28 c15 -19 28 -26 39 -21 21 8 22 -9 2 -26 -11
-9 -14 -22 -10 -42 7 -31 -8 -39 -23 -12 -7 12 -11 13 -17 4 -4 -6 -3 -16 3
-22 7 -7 5 -19 -7 -39 -14 -25 -14 -31 -2 -38 12 -8 9 -15 -13 -42 -26 -31
-27 -34 -10 -40 11 -4 13 -8 7 -8 -7 -1 -13 -9 -13 -18 0 -9 -8 -25 -17 -35
-14 -16 -15 -22 -4 -40 11 -17 9 -23 -9 -43 -18 -20 -20 -26 -9 -43 11 -18 10
-24 -4 -40 -21 -23 -22 -32 -2 -32 21 0 19 -24 -5 -45 -26 -23 -26 -38 0 -30
18 6 20 3 14 -19 -3 -14 -2 -31 2 -38 5 -7 10 -22 11 -33 2 -10 7 -22 11 -25
10 -7 9 -21 -2 -39 -6 -10 -5 -16 2 -19 18 -6 14 -38 -5 -58 -17 -17 -17 -18
2 -10 40 16 50 17 70 2 19 -15 19 -15 -4 -9 -15 4 -22 2 -18 -4 4 -6 16 -13
27 -16 14 -4 20 0 20 12 0 9 10 22 21 29 20 13 21 19 15 90 -6 67 -4 81 14
110 34 55 70 41 110 -43 5 -11 27 -45 50 -75 22 -30 44 -65 49 -77 6 -11 15
-24 20 -28 6 -3 11 -17 11 -30 0 -13 5 -27 10 -30 6 -3 10 -21 10 -40 0 -18 9
-54 20 -79 10 -25 17 -52 14 -59 -2 -7 7 -24 21 -37 19 -18 22 -26 14 -37 -6
-7 -7 -13 -2 -13 5 0 16 -13 26 -29 13 -22 14 -30 5 -34 -9 -3 -7 -11 8 -28
36 -41 40 -52 13 -44 -21 7 -22 6 -10 -8 7 -9 18 -14 24 -10 5 3 7 1 4 -4 -4
-6 2 -18 12 -27 18 -17 22 -15 83 29 119 88 176 125 188 125 5 0 24 10 43 23
19 12 60 38 92 57 31 19 70 47 86 62 16 15 43 35 59 43 17 9 30 19 30 23 0 10
65 42 86 42 25 0 88 37 102 59 7 12 19 21 27 21 8 0 15 4 15 10 0 14 71 80 80
75 5 -3 19 7 32 22 13 16 39 41 58 57 19 16 35 35 35 42 0 13 114 124 129 124
4 0 6 6 3 13 -3 8 17 24 54 42 32 15 78 45 101 66 24 21 47 39 51 39 13 0 109
65 147 98 24 22 37 27 42 19 6 -9 8 -9 9 1 1 6 2 16 3 21 0 5 13 19 29 31 15
12 27 28 27 35 0 8 9 17 20 20 11 3 20 12 20 20 0 8 9 16 19 20 10 3 21 15 24
26 4 16 11 19 27 14 23 -7 54 21 43 39 -4 5 5 6 20 2 22 -5 29 -2 42 23 18 35
19 45 4 36 -5 -4 -15 -19 -21 -33 -9 -21 -12 -23 -15 -10 -3 10 2 25 9 33 35
43 68 75 77 75 5 0 16 15 24 33 9 18 30 50 46 71 17 21 33 47 37 58 3 12 11
17 21 14 12 -5 13 0 8 24 -8 34 3 60 16 39 4 -7 10 -11 12 -9 13 15 87 180 92
205 15 66 57 175 67 175 5 0 8 11 8 24 0 14 4 27 9 31 6 3 10 13 10 23 0 67
15 219 24 230 7 9 -4 12 -49 14 -33 1 -69 1 -81 0 -39 -2 -25 14 22 25 25 6
45 7 45 3 0 -4 11 -5 24 -3 36 7 109 -29 126 -63 27 -54 63 -95 94 -109 41
-17 80 -56 93 -91 31 -84 64 -215 74 -292 16 -125 17 -129 36 -135 10 -3 47
-18 83 -33 87 -36 179 -62 295 -83 28 -5 68 -14 90 -19 22 -6 73 -12 113 -15
60 -4 70 -2 61 9 -8 10 -8 14 0 14 6 0 11 7 11 15 0 21 -12 19 -33 -5 -18 -22
-37 -26 -37 -9 0 6 9 13 20 16 17 5 18 8 8 21 -11 13 -9 15 15 10 l27 -5 0
173 0 174 -34 0 c-31 0 -77 11 -121 30 -98 42 -120 50 -137 50 -29 0 -58 19
-52 34 7 18 -31 27 -77 20 -22 -4 -39 -2 -43 5 -4 6 -20 11 -35 11 -25 0 -30
5 -35 34 -7 38 1 86 15 86 5 0 9 -6 9 -12 0 -10 2 -10 9 0 4 8 19 12 32 10 13
-2 30 4 37 12 10 13 11 13 6 -2 -5 -15 0 -18 29 -18 22 0 37 -6 41 -15 3 -8
12 -15 20 -15 10 0 13 6 9 16 -4 12 0 14 21 10 14 -4 38 -8 52 -11 20 -5 25
-11 21 -25 -3 -11 -1 -23 4 -26 12 -7 41 15 34 26 -6 10 34 4 65 -9 22 -10 19
-11 -20 -6 -38 4 -42 3 -25 -7 11 -7 49 -12 84 -11 54 1 64 -2 68 -18 13 -49
23 -8 23 94 l0 114 -72 17 c-80 18 -288 72 -413 106 -44 12 -105 28 -135 36
-30 7 -102 24 -160 38 -174 43 -254 54 -264 37 -5 -7 -14 -6 -31 5 -18 12 -28
13 -44 5 -26 -14 -38 -14 -24 0 17 17 -61 96 -103 104 -45 8 -43 22 4 23 66 2
71 4 69 26 -2 16 3 20 18 17 24 -4 286 -1 335 4 19 2 51 4 70 5 33 1 33 2 11
11 -34 13 -200 49 -230 49 -23 0 -23 1 -7 19 22 24 8 51 -35 70 -16 7 -36 25
-43 39 -8 15 -26 38 -39 51 -22 20 -30 22 -55 13 -24 -8 -30 -7 -28 4 1 7 5
16 8 20 4 3 4 21 1 40 -3 20 -1 40 6 48 7 8 13 44 14 80 1 47 5 66 14 66 7 0
13 -6 13 -13 0 -22 55 -68 73 -62 21 9 29 33 17 55 -16 30 -12 60 15 107 26
43 38 50 64 34 10 -7 12 -25 7 -77 -10 -116 -8 -124 40 -138 45 -14 131 140
184 329 20 71 29 95 63 156 78 141 91 243 45 339 -14 30 -31 71 -37 91 -15 48
-67 96 -114 105 -38 6 -117 -11 -117 -26 0 -4 -11 -10 -25 -12 -22 -5 -25 -3
-19 16 4 11 11 23 16 25 5 1 14 10 21 18 7 8 20 23 30 34 16 18 16 19 -5 20
-13 0 -41 1 -63 2 l-40 2 2 40 c5 72 16 75 247 75 110 1 246 5 301 10 55 5
171 13 258 16 l157 7 0 118 c0 65 -3 120 -8 123 -4 2 -115 -2 -247 -10 -393
-23 -609 -33 -614 -28 -10 10 -7 45 6 55 7 6 13 18 13 25 0 10 6 11 25 4 23
-9 25 -8 15 10 -8 14 -8 26 0 40 9 16 7 24 -5 36 -18 19 -20 50 -2 57 6 3 2 6
-11 6 -32 1 -38 28 -16 68 16 31 22 34 50 30 17 -3 36 -1 41 4 5 5 36 10 69
12 33 2 66 7 72 11 7 4 27 7 45 6 17 -1 37 -1 42 1 6 1 24 3 40 4 17 1 48 2
70 3 30 2 36 5 25 12 -11 7 5 10 53 10 79 0 69 -1 107 10 18 5 30 5 30 -1 0
-5 9 -9 21 -9 11 0 17 5 14 10 -4 6 6 10 23 10 16 0 44 3 62 7 24 4 31 3 26
-5 -4 -7 -1 -12 8 -12 9 0 16 7 16 15 0 8 7 15 15 15 8 0 15 7 15 16 0 15 -10
16 -82 10 -46 -4 -132 -14 -193 -22 -60 -7 -144 -18 -185 -24 -234 -30 -362
-42 -370 -34 -5 5 -11 48 -14 94 -7 134 -15 192 -28 208 -7 8 -12 23 -10 33 2
10 -3 28 -12 41 -8 13 -19 49 -26 80 -6 31 -18 62 -26 68 -7 7 -14 21 -14 31
0 24 -20 60 -42 77 -10 7 -18 26 -18 42 0 16 -4 31 -9 34 -4 3 -11 20 -15 37
-12 60 -68 154 -127 214 -32 33 -59 65 -59 70 0 13 -52 87 -75 107 -11 9 -48
31 -82 49 -64 32 -82 52 -40 42 12 -3 -5 11 -38 32 -49 30 -70 37 -112 38 -34
0 -54 4 -57 13 -3 8 -15 14 -26 14 -11 0 -20 7 -20 15 0 8 -5 15 -11 15 -15 0
-89 62 -89 75 0 16 -45 57 -53 48 -4 -3 -7 -1 -7 4 0 6 6 13 12 15 8 3 4 9
-10 17 -12 6 -22 18 -22 25 0 8 -11 21 -25 30 -28 18 -35 10 -8 -9 9 -7 13
-17 9 -24 -6 -8 -12 -9 -20 -2 -7 6 -15 9 -18 6 -7 -7 -32 23 -34 41 -1 8 2
14 8 14 22 0 -15 29 -50 41 -20 6 -49 20 -63 30 -14 10 -29 16 -32 13 -3 -3
-29 6 -59 21 -64 33 -161 65 -197 65 -14 1 -60 7 -101 14 -46 8 -79 10 -87 4
-7 -5 -40 -1 -90 13 -68 19 -109 22 -308 24 -126 2 -257 -1 -290 -5z m1307
-1440 c22 -10 25 -16 17 -27 -9 -10 -8 -13 5 -13 19 0 20 -5 5 -31 -11 -21 -3
-63 10 -54 5 2 6 -7 3 -20 -5 -26 6 -33 24 -15 7 7 15 5 26 -7 18 -22 32 -73
19 -73 -13 0 -21 -27 -15 -45 8 -20 22 -19 80 8 152 72 155 73 162 32 2 -11 8
-25 13 -31 9 -10 8 -35 -2 -69 -10 -34 64 -265 91 -285 14 -10 40 -69 50 -116
22 -97 51 -163 74 -166 16 -2 21 -9 19 -31 -1 -16 9 -43 23 -64 13 -20 27 -48
30 -62 9 -36 41 -141 70 -231 56 -169 96 -398 75 -424 -15 -18 -25 -160 -13
-194 8 -22 7 -35 -2 -49 -17 -23 -27 -142 -15 -164 7 -13 3 -18 -17 -23 -21
-6 -25 -12 -21 -31 2 -14 0 -25 -5 -25 -5 0 -8 -8 -7 -17 1 -10 -2 -26 -6 -37
-5 -11 -4 -26 3 -36 13 -22 6 -30 -28 -30 -14 0 -30 -4 -35 -9 -6 -6 -32 -11
-58 -12 -55 -3 -71 -14 -24 -17 47 -4 44 -10 -8 -17 -35 -6 -45 -11 -41 -22 8
-20 -15 -11 -28 11 -6 11 -22 31 -35 45 -31 35 -39 59 -33 101 2 19 1 32 -3
28 -5 -4 -14 -3 -22 3 -10 9 -13 8 -13 -3 0 -24 -47 -10 -66 21 -9 14 -23 30
-31 34 -7 5 -11 12 -8 18 4 5 -1 9 -9 9 -9 0 -16 8 -16 18 0 18 -66 86 -112
116 -16 10 -28 24 -28 31 0 7 -7 26 -15 41 -8 16 -12 37 -9 46 8 28 -32 43
-62 23 -20 -13 -32 -14 -64 -5 -21 6 -42 15 -46 21 -4 7 -15 2 -29 -11 -20
-19 -23 -19 -29 -5 -3 10 -12 15 -21 11 -19 -7 -20 27 -1 43 11 9 15 8 20 -5
6 -15 9 -15 29 3 27 25 65 35 70 19 3 -7 13 -3 29 12 26 23 53 29 63 12 3 -6
18 1 33 15 15 14 37 25 49 25 26 0 40 48 23 79 -9 17 -8 20 6 14 9 -3 20 0 25
8 5 9 26 14 54 14 36 0 45 3 45 18 0 12 8 17 26 17 24 0 26 2 20 34 -4 21 -2
37 4 41 8 5 7 12 -2 22 -12 14 -9 15 27 9 38 -7 39 -7 24 11 -9 10 -22 35 -30
55 -7 21 -17 34 -23 31 -6 -4 -7 -2 -3 3 5 5 13 10 18 10 5 1 11 2 14 3 3 0 1
11 -6 22 -10 20 -9 21 15 17 14 -3 33 0 42 7 15 11 14 15 -7 53 -13 23 -34 44
-46 47 -28 7 -64 45 -56 58 3 6 12 2 20 -8 8 -12 13 -14 13 -6 0 8 6 11 15 7
17 -6 103 13 123 27 10 8 9 14 -4 28 -16 18 -16 19 4 19 28 0 28 16 1 31 -12
6 -18 14 -13 18 25 17 5 86 -27 94 -10 3 -19 11 -19 19 0 11 2 10 9 -1 5 -7
14 -10 21 -6 15 9 -26 55 -49 55 -13 0 -14 2 -2 9 20 13 6 41 -17 34 -11 -2
-31 6 -49 21 -17 14 -35 26 -40 26 -5 0 -20 11 -33 25 -13 14 -31 25 -40 25
-8 0 -23 13 -33 29 -19 32 -119 93 -145 89 -36 -5 -72 12 -78 37 -3 14 -13 25
-21 25 -11 0 -13 7 -9 24 3 14 1 28 -5 32 -6 3 -8 15 -6 26 5 17 1 19 -31 16
-34 -3 -37 -6 -38 -37 -3 -50 -41 -65 -94 -38 -23 12 -29 11 -63 -16 -25 -19
-43 -27 -55 -22 -9 4 -30 9 -47 12 -39 6 -46 13 -39 41 7 25 26 29 44 7 21
-26 31 -5 10 22 -28 36 -26 63 5 63 20 0 25 -6 31 -35 8 -43 20 -45 29 -4 5
21 2 36 -9 48 -21 23 -20 31 4 31 11 0 20 -6 20 -14 0 -8 6 -21 13 -28 7 -7
16 -21 20 -30 6 -17 8 -17 36 0 28 15 29 17 10 22 -11 3 -20 10 -19 15 1 6
-11 15 -27 22 -26 11 -25 13 10 17 6 0 12 6 12 13 0 6 4 15 9 20 5 5 6 3 2 -4
-4 -7 -2 -13 3 -13 6 0 11 -14 11 -31 0 -18 4 -28 10 -24 6 3 28 7 50 7 22 0
40 4 40 8 0 16 -38 40 -54 34 -13 -5 -16 0 -16 23 0 45 -84 115 -108 91 -16
-16 -15 -28 3 -28 16 0 21 -25 6 -34 -14 -9 -34 22 -36 57 -3 43 12 70 36 64
10 -3 17 -2 14 3 -10 16 25 32 57 26 l33 -6 -35 29 c-42 36 -48 38 -43 9 4
-21 1 -23 -46 -23 -28 0 -51 3 -51 8 0 4 6 7 14 7 7 0 16 9 19 20 4 15 14 20
36 20 24 0 31 4 31 19 0 11 -4 23 -10 26 -17 10 -11 55 8 61 9 3 25 10 35 15
10 5 42 9 72 8 31 -1 57 0 60 3 8 7 98 -8 127 -22z m-1918 3 c4 -4 31 -9 59
-10 28 -1 53 -6 55 -12 5 -15 68 -14 91 1 15 9 25 7 53 -10 20 -12 45 -22 56
-22 12 0 25 -8 31 -17 5 -10 15 -18 23 -19 7 0 25 -2 41 -2 15 -1 27 -8 27
-16 0 -7 7 -19 15 -26 17 -14 20 -50 4 -50 -6 0 -8 -9 -4 -20 9 -29 -4 -24
-15 6 -6 14 -16 24 -23 22 -16 -6 -21 -46 -8 -62 8 -10 7 -21 -3 -40 -10 -21
-16 -24 -22 -14 -5 7 -7 21 -6 30 2 12 -2 15 -17 11 -27 -7 -38 -43 -17 -55 9
-5 16 -19 16 -32 0 -27 35 -76 55 -76 8 0 19 -10 26 -21 9 -18 8 -24 -4 -30
-9 -5 -13 -18 -9 -34 4 -21 0 -25 -19 -26 -16 -1 -11 -4 16 -11 22 -5 61 -7
87 -4 41 4 49 2 59 -15 8 -16 19 -20 51 -18 32 3 44 -1 58 -19 10 -12 23 -22
28 -22 10 0 42 -61 72 -138 15 -38 1 -82 -25 -82 -21 0 -19 -17 3 -24 14 -4
-63 1 -133 9 -11 1 -28 -5 -38 -13 -16 -14 -19 -14 -27 -2 -7 11 -10 11 -10 2
0 -17 -70 -5 -86 14 -6 8 -16 14 -21 14 -5 0 -16 14 -24 32 -8 17 -20 34 -28
36 -8 3 -11 0 -7 -6 9 -15 -34 -39 -82 -44 -23 -3 -49 -11 -57 -18 -9 -7 -18
-10 -21 -7 -8 8 -65 -14 -59 -23 3 -4 -12 -10 -33 -12 -26 -3 -45 1 -64 15
-25 18 -32 19 -70 8 -24 -7 -51 -20 -60 -29 -15 -13 -18 -13 -18 -1 0 20 -39
52 -56 45 -7 -3 -16 -1 -19 4 -8 13 -122 13 -130 0 -3 -5 -16 -10 -28 -10 -36
0 -60 -23 -92 -88 -16 -34 -37 -64 -45 -67 -30 -13 -110 -22 -110 -13 0 5 -7
16 -15 24 -11 11 -12 20 -5 34 6 11 9 23 9 27 -1 4 1 15 4 23 3 8 8 35 11 60
12 103 19 132 32 137 8 3 14 13 14 23 0 10 7 23 15 30 8 7 15 18 15 24 0 7 16
27 35 46 19 19 35 41 35 48 0 6 4 12 9 12 9 0 51 126 51 155 0 9 5 13 11 9 17
-10 29 16 29 61 0 22 6 49 14 60 7 11 21 48 31 83 10 34 22 62 26 62 5 0 9 5
9 11 0 13 41 48 57 49 6 0 13 4 15 9 2 5 22 12 46 14 23 2 45 7 49 11 9 8 58
8 67 -1z m724 -1212 c18 -2 15 -19 -5 -23 -16 -3 -15 -5 3 -23 45 -44 102
-203 90 -251 -4 -14 -3 -31 2 -37 5 -7 12 -24 16 -39 5 -23 9 -26 29 -19 15 6
22 17 24 37 0 16 2 33 2 38 1 5 8 3 16 -4 21 -18 41 1 27 25 -5 10 -7 50 -4
89 7 110 44 134 80 52 11 -23 51 -75 90 -115 40 -41 72 -78 72 -82 0 -5 3 -9
8 -10 4 0 17 -2 30 -3 12 -2 37 -16 55 -33 54 -52 140 -99 136 -75 -4 25 4 23
21 -5 11 -18 26 -33 33 -33 16 0 52 -74 43 -88 -3 -6 -2 -13 4 -17 18 -11 10
-24 -17 -27 -31 -3 -32 -15 -13 -108 21 -102 30 -166 30 -215 0 -56 -21 -119
-42 -128 -32 -12 -112 12 -187 56 -44 26 -89 47 -100 47 -30 0 -51 -11 -51
-26 0 -7 -9 -18 -20 -24 -22 -12 -26 -6 -32 40 -4 31 -43 40 -63 14 -12 -18
-14 -18 -49 1 l-35 19 -28 -26 c-16 -14 -40 -28 -54 -31 -32 -8 -75 -96 -78
-159 -1 -27 -11 -22 -66 27 -28 25 -58 47 -67 51 -10 3 -18 10 -18 15 0 12
-97 12 -105 -1 -3 -5 -15 -10 -26 -10 -10 0 -19 -4 -19 -10 0 -5 -7 -10 -15
-10 -9 0 -18 -7 -21 -15 -4 -10 -13 -13 -26 -9 -36 11 -2 -32 41 -53 22 -10
42 -25 44 -34 5 -18 -23 -39 -53 -39 -11 0 -20 -7 -20 -15 0 -8 -3 -14 -7 -13
-10 3 -64 -31 -79 -49 -6 -7 -26 -15 -45 -17 -32 -4 -37 -1 -63 41 -23 35 -26
47 -16 53 8 5 13 27 12 57 -1 58 15 103 42 123 21 15 26 17 57 19 13 1 16 9
12 44 -3 23 0 61 5 85 6 24 6 42 1 42 -5 0 -9 16 -9 35 0 19 4 35 9 35 5 0 11
11 13 25 5 22 2 25 -23 25 -15 0 -31 -4 -34 -10 -3 -5 -19 -10 -35 -10 -16 0
-33 -6 -37 -14 -4 -7 -25 -21 -45 -31 -21 -9 -40 -24 -43 -33 -5 -16 -62 -49
-77 -44 -5 1 -8 -3 -8 -8 0 -6 5 -10 10 -10 18 0 11 -22 -9 -27 -10 -2 -24
-16 -30 -29 -6 -13 -17 -24 -26 -24 -8 0 -15 -7 -15 -15 0 -8 -4 -15 -9 -15
-5 0 -27 -19 -48 -42 -57 -62 -77 -81 -106 -102 -19 -13 -26 -25 -21 -38 3
-12 -1 -20 -13 -24 -10 -3 -26 -10 -35 -15 -23 -12 -58 -12 -58 1 0 6 -16 10
-35 10 -29 0 -37 -5 -45 -26 -6 -15 -11 -37 -12 -49 -1 -13 -6 -21 -10 -19 -5
3 -6 11 -2 17 3 7 -1 3 -10 -7 -14 -17 -16 -17 -22 -3 -3 10 -12 17 -18 17 -8
0 -11 11 -8 30 3 21 0 32 -12 36 -9 3 -16 12 -16 19 0 7 -3 15 -7 17 -13 5
-43 68 -43 89 0 10 -3 19 -8 19 -12 0 -65 111 -78 165 -4 17 -12 35 -19 40 -6
6 -17 28 -24 50 -8 21 -20 45 -27 53 -8 7 -14 20 -14 27 0 22 19 28 28 8 17
-41 55 -93 63 -87 5 3 9 31 9 62 -2 127 12 470 25 602 2 19 4 41 4 48 2 23 21
12 46 -28 27 -43 44 -49 68 -25 13 13 16 13 21 0 3 -9 0 -15 -9 -15 -8 0 -15
-5 -15 -11 0 -6 -7 -17 -15 -25 -20 -20 -19 -30 4 -53 11 -11 24 -29 30 -40
15 -27 14 -78 -1 -84 -16 -7 25 -11 72 -7 28 2 32 0 22 -12 -9 -11 -6 -20 14
-41 25 -28 44 -35 44 -17 0 6 5 10 10 10 6 0 10 -8 10 -18 0 -23 111 -77 140
-69 13 3 20 0 20 -9 0 -16 26 -19 35 -4 3 6 16 10 28 10 26 1 57 22 57 40 0 7
7 10 16 6 8 -3 34 3 57 14 22 11 53 20 69 20 17 0 31 7 38 20 6 11 17 20 25
20 8 0 25 10 38 23 12 12 24 22 27 22 23 2 68 19 81 31 9 8 27 15 40 16 30 0
70 19 64 29 -3 4 10 20 27 35 18 15 32 32 30 37 -2 5 6 16 18 24 11 8 20 20
20 28 0 27 42 86 57 81 11 -4 13 -1 8 14 -4 13 -2 20 7 20 10 0 10 2 -1 9 -15
10 1 30 49 63 20 14 22 17 8 17 -17 1 -24 12 -14 22 4 3 47 4 84 0z m2270
-174 c10 -18 24 -69 31 -113 6 -43 16 -106 21 -139 15 -90 -16 -278 -48 -290
-22 -8 -23 -4 -12 56 18 91 11 273 -11 319 -13 26 -17 49 -13 70 4 18 1 41 -6
55 -13 24 -7 75 9 75 5 0 18 -15 29 -33z m-450 -1325 c2 -23 8 -42 14 -42 7 0
5 -7 -4 -17 -18 -22 -58 -105 -58 -121 0 -7 -9 -12 -20 -12 -19 0 -25 -11 -20
-35 1 -5 -8 0 -19 12 -28 30 -26 47 8 91 30 39 51 91 51 126 0 25 19 48 35 43
5 -2 11 -22 13 -45z m-1029 -218 c21 -18 31 -35 31 -54 0 -16 5 -30 12 -32 8
-3 5 -17 -10 -49 -12 -24 -22 -37 -22 -28 0 22 -29 46 -38 32 -10 -15 -92 -28
-92 -14 0 7 7 14 15 17 32 13 16 34 -25 34 -22 0 -40 -5 -40 -11 0 -7 -12 -8
-32 -4 -33 7 -48 20 -48 41 0 20 83 55 133 56 36 0 50 5 58 19 13 25 22 24 58
-7z m-934 -59 c28 -4 60 -13 72 -21 12 -7 40 -16 62 -20 45 -7 56 -24 16 -24
-14 0 -25 -4 -25 -10 0 -5 -6 -10 -13 -10 -8 0 -22 -9 -33 -21 -16 -18 -27
-20 -67 -16 -44 6 -47 5 -37 -13 6 -11 15 -20 20 -20 6 0 10 -4 10 -10 0 -11
-59 -6 -108 9 -29 9 -33 8 -31 -7 4 -46 0 -51 -36 -45 -40 6 -47 -10 -13 -28
14 -8 18 -14 10 -17 -19 -6 -15 -62 4 -62 10 0 14 -6 10 -15 -3 -8 0 -15 6
-15 7 0 5 -7 -5 -17 -17 -17 -19 -17 -28 0 -6 9 -16 17 -23 17 -8 0 -17 15
-20 34 -4 19 -10 36 -14 38 -13 5 -72 125 -72 145 0 10 6 25 13 32 10 10 8 15
-6 26 -26 19 -19 59 11 63 13 2 33 -3 46 -12 13 -8 40 -18 61 -22 36 -6 38 -5
32 15 -10 38 32 45 158 26z m2575 -111 c0 -8 4 -12 10 -9 6 3 7 -1 4 -9 -4
-11 0 -16 15 -16 13 0 19 5 15 14 -4 9 4 13 25 12 27 -1 31 -5 31 -29 0 -16
-4 -26 -9 -23 -5 4 -16 3 -25 0 -13 -5 -14 -9 -5 -21 10 -11 10 -13 -1 -11 -7
2 -15 -3 -17 -9 -3 -7 0 -13 6 -13 6 0 11 -7 11 -16 0 -12 -3 -14 -12 -6 -7 5
-27 13 -45 17 -18 3 -35 14 -38 25 -6 18 -45 25 -42 7 1 -5 -3 -11 -9 -14 -7
-2 -10 5 -7 22 5 25 -5 33 -22 16 -6 -5 -26 -1 -49 9 -22 10 -33 20 -25 22 8
3 27 -2 42 -11 25 -14 29 -14 37 -1 27 45 27 44 54 26 30 -19 50 -12 43 15 -3
11 -1 19 4 19 5 0 9 -7 9 -16z"/>
<path d="M6053 3273 c-15 -10 -23 -11 -23 -4 0 6 -9 11 -21 11 -15 0 -19 -5
-15 -15 7 -20 -16 -29 -52 -20 -24 6 -25 8 -8 14 12 5 16 10 9 14 -6 4 -18 4
-27 1 -12 -5 -13 -10 -6 -25 6 -10 14 -18 18 -17 4 1 14 -1 22 -4 125 -44 325
-84 468 -93 l92 -6 0 51 c0 50 0 50 -33 50 -18 0 -60 7 -92 16 -36 9 -78 13
-105 10 -28 -3 -37 -2 -25 3 16 7 14 9 -15 15 -19 4 -53 10 -75 13 -35 5 -38
4 -26 -10 15 -19 7 -37 -17 -36 -11 0 -12 3 -4 6 18 7 15 23 -6 23 -10 0 -22
4 -27 9 -6 5 -19 3 -32 -6z"/>
<path d="M6115 2990 c-27 -5 -76 -9 -107 -9 -32 -1 -58 -5 -58 -11 0 -5 7 -10
16 -10 8 0 57 -12 107 -27 51 -14 128 -34 172 -44 44 -9 122 -28 173 -42 l92
-25 0 62 0 61 -122 28 c-123 28 -180 31 -273 17z"/>
<path d="M5825 2008 c-3 -8 -5 -19 -4 -24 5 -15 -12 -54 -22 -54 -5 0 -9 -9
-9 -19 0 -11 -5 -23 -10 -26 -6 -4 -19 -23 -30 -43 -11 -20 -29 -51 -39 -67
-10 -17 -20 -44 -23 -60 -10 -57 -33 -130 -45 -143 -18 -19 -38 4 -38 43 1 45
-5 49 -31 24 -20 -19 -24 -20 -24 -6 0 9 -5 17 -11 17 -6 0 -9 -7 -6 -15 4 -8
2 -17 -2 -19 -5 -3 -6 -17 -3 -31 4 -22 1 -25 -26 -25 -20 0 -35 8 -45 23 -8
12 -18 19 -22 15 -4 -4 0 -19 9 -32 9 -14 12 -27 6 -31 -13 -8 -49 16 -56 37
-8 26 -20 22 -43 -16 -26 -41 -26 -42 -1 -49 11 -3 20 -13 20 -22 0 -11 -5
-15 -15 -11 -8 3 -22 9 -30 12 -17 7 -21 -21 -4 -32 7 -4 8 -9 0 -17 -7 -7
-14 -7 -24 2 -11 9 -17 8 -27 -4 -10 -12 -10 -15 1 -16 8 0 -14 -7 -48 -16
-56 -13 -67 -19 -100 -63 -21 -27 -46 -49 -55 -50 -28 0 -48 -11 -48 -27 0
-10 -6 -12 -20 -8 -15 5 -18 3 -14 -9 7 -19 0 -20 -27 -6 -22 12 -25 30 -5 30
8 0 17 7 20 16 3 8 11 12 17 8 8 -4 9 0 4 15 -5 15 -2 21 9 21 9 0 16 8 16 19
0 11 3 26 6 35 5 13 -2 16 -36 16 -23 0 -50 5 -61 10 -14 8 -29 6 -59 -9 -22
-11 -58 -22 -80 -26 -22 -4 -39 -10 -39 -13 1 -4 0 -10 -1 -14 -1 -5 -3 -11
-4 -15 -5 -28 -41 -63 -65 -64 -17 -1 -20 -3 -8 -6 25 -7 21 -20 -13 -38 -16
-8 -33 -27 -36 -40 -4 -18 -13 -25 -29 -25 -13 0 -27 -5 -31 -11 -7 -12 23 -9
59 6 15 6 17 1 17 -34 0 -34 3 -41 19 -41 23 0 36 16 21 25 -17 10 -11 25 10
25 11 0 20 6 20 14 0 10 7 12 22 8 16 -4 20 -2 16 9 -4 11 6 20 33 32 21 9 39
21 39 27 0 5 7 7 15 4 9 -4 15 0 15 10 0 18 15 22 25 6 10 -16 28 -12 21 5 -8
21 18 19 38 -4 16 -18 16 -20 -16 -42 -18 -13 -51 -41 -74 -64 -22 -22 -57
-49 -77 -60 -20 -11 -37 -23 -37 -28 0 -15 -51 -27 -71 -17 -16 9 -25 4 -59
-32 -22 -24 -40 -51 -40 -60 0 -11 -8 -18 -20 -18 -13 0 -20 -7 -20 -20 0 -12
-10 -24 -24 -29 -12 -5 -49 -36 -80 -69 -59 -62 -147 -116 -175 -108 -19 6
-44 -12 -54 -36 -9 -25 -25 -22 -29 4 -3 23 -3 23 -28 -5 -13 -15 -31 -27 -40
-25 -32 4 -60 -13 -60 -38 0 -15 -6 -24 -15 -24 -8 0 -15 9 -15 20 0 11 -4 20
-8 20 -17 0 -42 -37 -42 -63 0 -17 -5 -27 -14 -27 -23 0 -31 22 -12 32 24 13
19 28 -9 28 -14 0 -25 -4 -25 -9 0 -5 -4 -21 -10 -36 -8 -22 -13 -24 -30 -15
-11 6 -18 15 -15 21 9 13 -7 11 -26 -4 -9 -7 -17 -24 -17 -37 0 -14 -1 -32 -3
-40 -2 -8 3 -15 11 -15 8 0 16 9 18 20 7 33 22 47 38 34 8 -6 11 -15 8 -20 -9
-15 13 -10 26 6 19 23 40 18 40 -10 0 -30 -24 -43 -45 -25 -15 13 -35 6 -35
-13 0 -7 -9 -23 -20 -37 l-19 -25 -10 28 -11 27 -21 -21 c-27 -27 -44 -13 -30
24 6 15 15 27 21 27 14 0 6 43 -9 48 -19 6 -41 -30 -30 -50 7 -12 4 -20 -8
-27 -10 -6 -14 -11 -9 -11 6 0 1 -7 -10 -15 -10 -8 -13 -15 -7 -15 8 0 4 -10
-9 -25 -23 -27 -34 -72 -13 -55 7 5 29 9 51 7 25 -1 39 2 39 10 0 15 45 49 45
34 0 -5 -7 -16 -15 -25 -23 -23 -18 -38 13 -35 56 4 82 -1 82 -16 0 -9 -7 -18
-15 -21 -8 -4 -15 -12 -15 -19 0 -8 -11 -22 -25 -33 -14 -11 -25 -23 -25 -26
0 -10 -39 -46 -50 -46 -5 0 -10 -6 -10 -13 0 -7 -21 -34 -47 -60 l-47 -47
-769 0 -770 0 7 41 c4 22 23 73 43 112 20 40 44 92 53 117 9 25 29 70 43 100
28 61 77 171 77 175 0 7 -82 55 -94 55 -17 0 -66 39 -48 40 18 0 15 14 -8 27
-17 11 -23 8 -52 -34 -38 -54 -61 -94 -83 -143 -8 -19 -20 -42 -25 -50 -21
-32 -70 -134 -70 -146 0 -6 -7 -17 -15 -24 -8 -7 -15 -21 -15 -32 0 -10 -7
-21 -15 -24 -8 -4 -15 -17 -15 -30 0 -12 -6 -27 -13 -31 -7 -4 -24 -39 -38
-78 l-26 -70 -906 -3 c-593 -1 -907 -6 -907 -12 0 -7 1103 -10 3255 -10 2163
0 3255 3 3255 10 0 7 -398 10 -1175 10 l-1175 0 23 27 c12 14 38 42 57 62 19
20 52 58 72 85 108 141 349 386 603 611 101 90 131 120 180 180 87 107 182
181 315 246 89 44 126 59 141 59 9 0 32 26 55 63 38 62 76 107 91 107 4 0 2
-5 -5 -12 -7 -7 -12 -19 -12 -27 0 -10 11 -3 31 19 16 19 42 49 56 65 34 39
68 118 53 123 -17 6 9 32 34 33 15 1 17 2 4 6 -26 7 -29 30 -5 37 18 5 19 8 8
15 -12 8 -12 12 -2 25 18 21 29 120 20 171 -10 55 -46 116 -54 93z"/>
<path d="M185 797 c-6 -7 -9 -22 -7 -33 2 -12 -3 -24 -11 -27 -10 -4 -12 3
-10 27 l4 31 -26 -30 -26 -30 6 26 c6 26 6 26 -54 28 l-61 1 0 -112 c0 -105 1
-111 16 -90 8 12 34 31 57 41 43 20 157 130 157 152 0 7 -3 9 -7 6 -3 -4 -11
0 -17 8 -8 10 -13 11 -21 2z"/>
</g>
</svg>
